<svg xmlns="http://www.w3.org/2000/svg" viewBox="0 0 256 256">
  <!-- Hawk placeholder portrait - neutral expression -->
  <defs>
    <linearGradient id="bg" x1="0%" y1="0%" x2="100%" y2="100%">
      <stop offset="0%" style="stop-color:#D4A574"/>
      <stop offset="100%" style="stop-color:#8B6914"/>
    </linearGradient>
    <linearGradient id="skin" x1="0%" y1="0%" x2="0%" y2="100%">
      <stop offset="0%" style="stop-color:#8B6914"/>
      <stop offset="100%" style="stop-color:#654321"/>
    </linearGradient>
  </defs>

  <!-- Background circle -->
  <circle cx="128" cy="128" r="120" fill="url(#bg)"/>

  <!-- Face base -->
  <ellipse cx="128" cy="140" rx="70" ry="85" fill="url(#skin)"/>

  <!-- Hat -->
  <ellipse cx="128" cy="65" rx="90" ry="30" fill="#1a1a1a"/>
  <rect x="48" y="35" width="160" height="40" fill="#1a1a1a"/>
  <ellipse cx="128" cy="35" rx="60" ry="20" fill="#2a2a2a"/>

  <!-- Eyes -->
  <ellipse cx="100" cy="130" rx="12" ry="8" fill="#F5F1EC"/>
  <ellipse cx="156" cy="130" rx="12" ry="8" fill="#F5F1EC"/>
  <circle cx="100" cy="130" r="5" fill="#2a2a2a"/>
  <circle cx="156" cy="130" r="5" fill="#2a2a2a"/>

  <!-- Eyebrows -->
  <path d="M80 115 Q100 108, 115 115" stroke="#4a4a4a" stroke-width="4" fill="none"/>
  <path d="M141 115 Q156 108, 176 115" stroke="#4a4a4a" stroke-width="4" fill="none"/>

  <!-- Nose -->
  <path d="M128 130 L128 160 L118 170" stroke="#654321" stroke-width="3" fill="none"/>

  <!-- Beard -->
  <path d="M75 175 Q128 220, 181 175 Q190 200, 128 230 Q66 200, 75 175" fill="#6a6a6a"/>

  <!-- Mouth line (neutral) -->
  <path d="M105 185 Q128 190, 151 185" stroke="#3a3a3a" stroke-width="3" fill="none"/>

  <!-- Bandana -->
  <path d="M55 160 Q128 175, 201 160 L195 180 Q128 195, 61 180 Z" fill="#C44536"/>

  <!-- Text label -->
  <text x="128" y="250" text-anchor="middle" font-family="serif" font-size="14" fill="#3D2921">HAWK</text>
</svg>
